HIERARCHY
ROOT joint_Root
{
	OFFSET 0.0 0.0 0.0
	CHANNELS 6 Xposition Yposition Zposition Zrotation Xrotation Yrotation 
	JOINT Hips
	{
		OFFSET -17.1583 93.1646 452.98
		CHANNELS 6 Xposition Yposition Zposition Zrotation Xrotation Yrotation 
		JOINT Spine
		{
			OFFSET 15.7357 0.0 0.0
			CHANNELS 6 Xposition Yposition Zposition Zrotation Xrotation Yrotation 
			JOINT Chest
			{
				OFFSET 8.98455 -0.406207 0.0
				CHANNELS 6 Xposition Yposition Zposition Zrotation Xrotation Yrotation 
				JOINT Neck
				{
					OFFSET 16.3773 0.0 0.0
					CHANNELS 6 Xposition Yposition Zposition Zrotation Xrotation Yrotation 
					JOINT Head
					{
						OFFSET 6.45672 0.0 0.0
						CHANNELS 6 Xposition Yposition Zposition Zrotation Xrotation Yrotation 
						End Site
						{
							OFFSET 0.0 0.0 0.0
						}
					}
				}
				JOINT Shoulder_L
				{
					OFFSET 12.9942 -0.242716 4.98039
					CHANNELS 6 Xposition Yposition Zposition Zrotation Xrotation Yrotation 
					JOINT UpperArm_L
					{
						OFFSET 5.34809 0.0 0.0
						CHANNELS 6 Xposition Yposition Zposition Zrotation Xrotation Yrotation 
						JOINT LowerArm_L
						{
							OFFSET 24.3286 1.87007e-05 0.0
							CHANNELS 6 Xposition Yposition Zposition Zrotation Xrotation Yrotation 
							JOINT Hand_L
							{
								OFFSET 22.2916 0.0 0.0
								CHANNELS 6 Xposition Yposition Zposition Zrotation Xrotation Yrotation 
								End Site
								{
									OFFSET 0.0 0.0 0.0
								}
							}
						}
					}
				}
				JOINT Shoulder_R
				{
					OFFSET 12.9945 -0.242716 -4.98039
					CHANNELS 6 Xposition Yposition Zposition Zrotation Xrotation Yrotation 
					JOINT UpperArm_R
					{
						OFFSET -5.34813 0.0 0.0
						CHANNELS 6 Xposition Yposition Zposition Zrotation Xrotation Yrotation 
						JOINT LowerArm_R
						{
							OFFSET -24.3289 0.000322201 0.0
							CHANNELS 6 Xposition Yposition Zposition Zrotation Xrotation Yrotation 
							JOINT Hand_R
							{
								OFFSET -22.2915 -0.000108084 0.0
								CHANNELS 6 Xposition Yposition Zposition Zrotation Xrotation Yrotation 
								End Site
								{
									OFFSET 0.0 0.0 0.0
								}
							}
						}
					}
				}
			}
		}
		JOINT UpperLeg_L
		{
			OFFSET -2.19248 -6.46944 0.0
			CHANNELS 6 Xposition Yposition Zposition Zrotation Xrotation Yrotation 
			JOINT LowerLeg_L
			{
				OFFSET 39.0811 0.0 -1.23785e-05
				CHANNELS 6 Xposition Yposition Zposition Zrotation Xrotation Yrotation 
				JOINT Foot_L
				{
					OFFSET 40.9854 0.0 -1.26872e-05
					CHANNELS 6 Xposition Yposition Zposition Zrotation Xrotation Yrotation 
					JOINT Toes_L
					{
						OFFSET 11.7543 0.0 0.0
						CHANNELS 6 Xposition Yposition Zposition Zrotation Xrotation Yrotation 
						End Site
						{
							OFFSET 0.0 0.0 0.0
						}
					}
				}
			}
		}
		JOINT UpperLeg_R
		{
			OFFSET -2.19251 6.46944 0.0
			CHANNELS 6 Xposition Yposition Zposition Zrotation Xrotation Yrotation 
			JOINT LowerLeg_R
			{
				OFFSET -39.0811 -0.00228153 -0.0401928
				CHANNELS 6 Xposition Yposition Zposition Zrotation Xrotation Yrotation 
				JOINT Foot_R
				{
					OFFSET -40.9854 0.0 0.0
					CHANNELS 6 Xposition Yposition Zposition Zrotation Xrotation Yrotation 
					JOINT Toes_R
					{
						OFFSET -11.7543 0.0 0.0
						CHANNELS 6 Xposition Yposition Zposition Zrotation Xrotation Yrotation 
						End Site
						{
							OFFSET 0.0 0.0 0.0
						}
					}
				}
			}
		}
	}
}
MOTION
Frames:	9
Frame Time:	0.0333333
0.000000 0.000000 0.000000 0.000000 0.000000 -0.000000 -2.144560 92.579700 1.838160 88.754700 3.423890 5.251860 15.735700 0.000005 -0.000001 84.144800 86.930100 -82.443900 8.984550 -0.406207 -0.000000 -1.644590 -0.765827 3.390060 16.377300 -0.000001 -0.000001 4.707350 1.005750 -5.919270 6.456720 -0.000001 -0.000000 6.440110 -0.199337 -6.447450 12.994200 -0.242716 4.980390 -92.937800 8.817160 -71.489600 5.348090 -0.000007 -0.000001 -72.475800 18.040300 2.044900 24.328600 0.000019 0.000005 10.521400 26.722900 -22.441500 22.291600 -0.000001 0.000005 -3.048810 5.048330 6.272660 12.994500 -0.242716 -4.980390 89.183200 2.642970 -72.819400 -5.348130 -0.000001 -0.000004 -71.430400 18.687100 -2.677170 -24.328900 0.000322 -0.000009 -0.724142 -5.260250 -7.841520 -22.291500 -0.000108 -0.000004 -20.267700 5.149140 3.965630 -2.192480 -6.469440 -0.000000 -172.404000 -3.670040 3.117760 39.081100 -0.000007 -0.000012 -0.007805 0.025500 17.016500 40.985400 -0.000006 -0.000013 -1.058940 16.363400 -69.836800 11.754300 -0.000000 0.000003 -0.001739 0.193025 -8.745910 -2.192510 6.469440 -0.000001 177.378000 7.649910 -174.945000 -39.081100 -0.002282 -0.040193 0.091197 -0.307513 15.946800 -40.985400 0.000008 0.000006 -1.958510 2.542470 -71.894100 -11.754300 -0.000006 -0.000006 -0.011768 0.284073 -5.028460
0.000000 0.000000 0.000000 0.000000 0.000000 -0.000000 -2.030220 92.579100 1.966860 88.720700 3.624600 4.956910 15.735700 0.000005 -0.000001 84.102800 87.024700 -82.630700 8.984550 -0.406207 -0.000000 -1.835750 -0.734540 2.931690 16.377300 -0.000001 -0.000001 4.669920 1.098900 -6.559880 6.456720 -0.000001 -0.000000 5.868350 -0.276182 -7.623350 12.994200 -0.242716 4.980390 -92.983200 8.895980 -71.376300 5.348090 -0.000007 -0.000001 -71.725800 16.025300 1.910630 24.328600 0.000019 0.000005 10.237500 26.795500 -21.832100 22.291600 -0.000001 0.000005 -2.322200 5.035700 6.550590 12.994500 -0.242716 -4.980390 89.121500 2.750360 -72.278800 -5.348130 -0.000001 -0.000004 -69.973400 14.689600 -3.394890 -24.328900 0.000322 -0.000009 -0.580550 -5.927660 -5.595470 -22.291500 -0.000108 -0.000004 -21.151700 5.130040 4.416950 -2.192480 -6.469440 -0.000000 -172.505000 -3.481140 2.841330 39.081100 -0.000007 -0.000012 -0.005293 0.017227 17.077700 40.985400 -0.000006 -0.000013 -0.964981 16.245100 -69.958500 11.754300 -0.000000 0.000003 -0.001795 0.193745 -8.716610 -2.192510 6.469440 -0.000001 177.258000 8.140860 -174.993000 -39.081100 -0.002282 -0.040193 0.085470 -0.292454 15.688400 -40.985400 0.000008 0.000006 -2.112210 2.892550 -71.765700 -11.754300 -0.000006 -0.000006 -0.011354 0.281161 -5.147700
0.000000 0.000000 0.000000 0.000000 0.000000 -0.000000 -1.892860 92.573700 2.120130 88.646400 3.789290 4.751100 15.735700 0.000005 -0.000001 83.317100 87.094200 -82.122500 8.984550 -0.406207 -0.000000 -1.984690 -0.777765 2.375440 16.377300 -0.000001 -0.000001 4.585860 1.247050 -7.188930 6.456720 -0.000001 -0.000000 5.283320 -0.149314 -8.691890 12.994200 -0.242716 4.980390 -92.993000 8.868060 -71.264900 5.348090 -0.000007 -0.000001 -70.922100 14.508500 2.081910 24.328600 0.000019 0.000005 10.021500 26.625000 -21.520200 22.291600 -0.000001 0.000005 -2.329770 5.027670 6.725470 12.994500 -0.242716 -4.980390 89.156200 2.555500 -71.719900 -5.348130 -0.000001 -0.000004 -68.071600 9.056290 -4.401150 -24.328900 0.000322 -0.000009 -0.296773 -6.509910 -2.610590 -22.291500 -0.000108 -0.000004 -20.807000 5.124040 4.557040 -2.192480 -6.469440 -0.000000 -172.566000 -3.244800 2.658330 39.081100 -0.000007 -0.000012 -0.003388 0.010947 17.192800 40.985400 -0.000006 -0.000013 -0.856665 16.108700 -70.191900 11.754300 -0.000000 0.000003 -0.002024 0.196648 -8.598560 -2.192510 6.469440 -0.000001 177.130000 8.585950 -174.958000 -39.081100 -0.002282 -0.040193 0.075179 -0.259467 15.478100 -40.985400 0.000008 0.000006 -2.593430 3.275810 -71.640600 -11.754300 -0.000006 -0.000006 -0.011323 0.280940 -5.156730
0.000000 0.000000 0.000000 0.000000 0.000000 -0.000000 -1.728330 92.572500 2.314530 88.505400 3.800020 4.474720 15.735700 0.000005 -0.000001 83.463400 87.160300 -82.621100 8.984550 -0.406207 -0.000000 -2.117760 -0.718979 1.670980 16.377300 -0.000001 -0.000001 4.212560 1.359470 -7.700020 6.456720 -0.000001 -0.000000 4.816940 -0.019360 -9.618050 12.994200 -0.242716 4.980390 -92.998100 8.843830 -71.187900 5.348090 -0.000007 -0.000001 -69.855100 13.004800 2.242370 24.328600 0.000019 0.000005 10.124800 26.994900 -21.475100 22.291600 -0.000001 0.000005 -2.875930 5.034660 6.572620 12.994500 -0.242716 -4.980390 89.242700 2.231270 -71.247000 -5.348130 -0.000001 -0.000004 -65.610200 1.087860 -5.406650 -24.328900 0.000322 -0.000009 -0.000320 -8.207840 -0.000049 -22.291500 -0.000108 -0.000004 -19.421400 5.111970 4.838560 -2.192480 -6.469440 -0.000000 -172.512000 -3.379310 2.467650 39.081100 -0.000007 -0.000012 -0.004658 0.014995 17.254000 40.985400 -0.000006 -0.000013 -0.692821 16.228300 -70.286600 11.754300 -0.000000 0.000003 -0.001649 0.191866 -8.793030 -2.192510 6.469440 -0.000001 177.068000 8.810230 -174.922000 -39.081100 -0.002282 -0.040193 0.060755 -0.212979 15.089600 -40.985400 0.000008 0.000006 -3.166010 3.642970 -71.327400 -11.754300 -0.000006 -0.000006 -0.011303 0.280797 -5.162570
0.000000 0.000000 0.000000 0.000000 0.000000 -0.000000 -1.559860 92.578200 2.495910 88.394700 3.939080 4.206030 15.735700 0.000005 -0.000001 83.659100 87.219600 -83.273300 8.984550 -0.406207 -0.000000 -2.237050 -0.647633 0.758862 16.377300 -0.000001 -0.000001 3.690530 1.428220 -8.279620 6.456720 -0.000001 -0.000000 4.245910 -0.062582 -10.365200 12.994200 -0.242716 4.980390 -93.037600 8.866270 -71.001800 5.348090 -0.000007 -0.000001 -68.485800 11.321200 2.341090 24.328600 0.000019 0.000005 10.032300 26.926000 -21.338800 22.291600 -0.000001 0.000005 -3.117030 5.038780 6.483600 12.994500 -0.242716 -4.980390 89.352300 1.854430 -70.742000 -5.348130 -0.000001 -0.000004 -62.199900 -8.526680 -5.995660 -24.328900 0.000322 -0.000009 0.000249 -11.169900 -0.000064 -22.291500 -0.000108 -0.000004 -17.704000 5.112420 4.827570 -2.192480 -6.469440 -0.000000 -172.533000 -3.235250 2.295810 39.081100 -0.000007 -0.000012 -0.003878 0.012470 17.272800 40.985400 -0.000006 -0.000013 -0.560442 16.187400 -70.509500 11.754300 -0.000000 0.000003 -0.001950 0.195713 -8.636590 -2.192510 6.469440 -0.000001 176.901000 9.449300 -174.799000 -39.081100 -0.002282 -0.040193 0.046586 -0.165947 14.609500 -40.985400 0.000008 0.000006 -3.686440 4.275710 -71.001300 -11.754300 -0.000006 -0.000006 -0.011434 0.281728 -5.124460
0.000000 0.000000 0.000000 0.000000 0.000000 -0.000000 -1.366760 92.577000 2.691400 88.278700 4.035460 3.805480 15.735700 0.000005 -0.000001 85.186100 87.304300 -85.337600 8.984550 -0.406207 -0.000000 -2.394270 -0.438876 -0.312220 16.377300 -0.000001 -0.000001 2.932740 1.370830 -8.932360 6.456720 -0.000001 -0.000000 3.609970 -0.317929 -11.126700 12.994200 -0.242716 4.980390 -93.031600 8.806230 -70.917500 5.348090 -0.000007 -0.000001 -67.057000 9.074230 2.364620 24.328600 0.000019 0.000005 9.957200 26.907200 -21.202700 22.291600 -0.000001 0.000005 -2.736600 5.029320 6.689070 12.994500 -0.242716 -4.980390 89.522100 1.348340 -70.483400 -5.348130 -0.000001 -0.000004 -57.764100 -19.289300 -5.398010 -24.328900 0.000322 -0.000009 -0.001268 -15.333600 -0.000086 -22.291500 -0.000108 -0.000004 -15.625800 5.088880 5.357830 -2.192480 -6.469440 -0.000000 -172.599000 -3.026440 1.962370 39.081100 -0.000007 -0.000012 -0.002581 0.008256 17.354900 40.985400 -0.000006 -0.000013 -0.419527 15.993000 -70.686800 11.754300 -0.000000 0.000003 -0.002042 0.196866 -8.589720 -2.192510 6.469440 -0.000001 176.759000 9.980450 -174.834000 -39.081100 -0.002282 -0.040193 0.034185 -0.122181 14.172100 -40.985400 0.000008 0.000006 -4.331520 4.878500 -70.651500 -11.754300 -0.000006 -0.000006 -0.011414 0.281584 -5.130360
0.000000 0.000000 0.000000 0.000000 0.000000 -0.000000 -1.147950 92.598800 2.875720 88.273200 4.121240 3.347790 15.735700 0.000005 -0.000001 86.912600 87.380400 -87.718900 8.984550 -0.406207 -0.000000 -2.535450 -0.209634 -1.617030 16.377300 -0.000001 -0.000001 1.711310 1.334100 -9.559820 6.456720 -0.000001 -0.000000 3.311840 -0.617717 -11.873200 12.994200 -0.242716 4.980390 -93.059000 8.878190 -70.901200 5.348090 -0.000007 -0.000001 -65.233800 6.864880 2.383380 24.328600 0.000019 0.000005 10.096100 27.176600 -21.298200 22.291600 -0.000001 0.000005 -2.006000 5.015610 6.984390 12.994500 -0.242716 -4.980390 89.853700 0.410977 -70.402700 -5.348130 -0.000001 -0.000004 -52.598900 -29.477500 -3.844030 -24.328900 0.000322 -0.000009 -0.000666 -22.074300 -0.000123 -22.291500 -0.000108 -0.000004 -10.692800 5.076230 5.658240 -2.192480 -6.469440 -0.000000 -172.771000 -2.997230 1.729910 39.081100 -0.000007 -0.000012 -0.005192 0.016816 17.156100 40.985400 -0.000006 -0.000013 -0.278586 15.910700 -70.810800 11.754300 -0.000000 0.000003 -0.002156 0.198280 -8.532190 -2.192510 6.469440 -0.000001 176.499000 10.542400 -174.844000 -39.081100 -0.002282 -0.040193 0.021754 -0.076301 13.572800 -40.985400 0.000008 0.000006 -4.984390 5.443940 -70.224400 -11.754300 -0.000006 -0.000006 -0.011296 0.280750 -5.164510
0.000000 0.000000 0.000000 0.000000 0.000000 -0.000000 -0.960312 92.624300 3.028380 88.252300 4.230520 2.670490 15.735700 0.000005 -0.000001 87.004000 87.527000 -88.554100 8.984550 -0.406207 -0.000000 -2.826400 -0.115186 -3.103430 16.377300 -0.000001 -0.000001 0.332550 1.199370 -9.976090 6.456720 -0.000001 -0.000000 2.998430 -0.808898 -12.178800 12.994200 -0.242716 4.980390 -93.091300 8.958450 -70.872600 5.348090 -0.000007 -0.000001 -63.147500 4.897020 2.485400 24.328600 0.000019 0.000005 10.051900 26.902300 -21.393300 22.291600 -0.000001 0.000005 -1.289480 5.004210 7.229230 12.994500 -0.242716 -4.980390 90.315200 -0.895267 -70.597800 -5.348130 -0.000001 -0.000004 -46.625700 -37.986900 -2.022990 -24.328900 0.000322 -0.000009 -0.001241 -29.175400 -0.000167 -22.291500 -0.000108 -0.000004 -1.636410 5.095220 5.247780 -2.192480 -6.469440 -0.000000 -172.949000 -2.777300 1.253840 39.081100 -0.000007 -0.000012 -0.006974 0.022902 16.936300 40.985400 -0.000006 -0.000013 -0.187988 15.682600 -70.862600 11.754300 -0.000000 0.000003 -0.002173 0.198494 -8.523500 -2.192510 6.469440 -0.000001 176.380000 10.823500 -175.151000 -39.081100 -0.002282 -0.040193 0.012121 -0.037967 13.031300 -40.985400 0.000008 0.000006 -5.866980 5.752570 -69.796700 -11.754300 -0.000006 -0.000006 -0.011384 0.281371 -5.139060
0.000000 0.000000 0.000000 0.000000 0.000000 -0.000000 -0.802997 92.657300 3.175550 88.254500 4.463070 2.119930 15.735700 0.000005 -0.000001 85.214300 87.615800 -87.595000 8.984550 -0.406207 -0.000000 -3.013500 -0.173847 -4.766520 16.377300 -0.000001 -0.000001 -0.983100 0.988101 -10.146800 6.456720 -0.000001 -0.000000 2.479520 -0.821809 -11.710600 12.994200 -0.242716 4.980390 -93.141700 9.115420 -70.890700 5.348090 -0.000007 -0.000001 -60.846400 2.856830 2.537390 24.328600 0.000019 0.000005 10.165800 26.897900 -21.621000 22.291600 -0.000001 0.000005 -0.967351 4.994440 7.436700 12.994500 -0.242716 -4.980390 90.851200 -2.454200 -70.865200 -5.348130 -0.000001 -0.000004 -39.878000 -43.725000 0.256686 -24.328900 0.000322 -0.000009 -0.002387 -36.470500 -0.000219 -22.291500 -0.000108 -0.000004 8.325560 5.131960 4.406140 -2.192480 -6.469440 -0.000000 -173.046000 -2.838180 0.940099 39.081100 -0.000007 -0.000012 -0.010406 0.034905 16.599500 40.985400 -0.000006 -0.000013 -0.080886 15.882900 -70.847700 11.754300 -0.000000 0.000003 -0.002272 0.199700 -8.474430 -2.192510 6.469440 -0.000001 176.235000 11.086700 -175.245000 -39.081100 -0.002282 -0.040193 0.002490 0.003858 12.353800 -40.985400 0.000008 0.000006 -6.890660 5.962260 -69.273000 -11.754300 -0.000006 -0.000006 -0.011279 0.280627 -5.169560
